<mxfile host="app.diagrams.net" modified="2023-05-03T00:07:47.939Z" agent="Mozilla/5.0 (Windows NT 10.0; Win64; x64) AppleWebKit/537.36 (KHTML, like Gecko) Chrome/112.0.0.0 Safari/537.36" etag="ldjn2F_8zW6h69sDzsg3" version="21.1.9" type="github">
  <diagram name="Página-1" id="FYVW6FhbBVzhqVDmXnn-">
    <mxGraphModel dx="880" dy="484" grid="1" gridSize="10" guides="1" tooltips="1" connect="1" arrows="1" fold="1" page="1" pageScale="1" pageWidth="827" pageHeight="1169" math="0" shadow="0">
      <root>
        <mxCell id="0" />
        <mxCell id="1" parent="0" />
        <mxCell id="Wt9r3CEBOYQ-TrDpD4bI-1" value="Pessoa" style="shape=umlActor;verticalLabelPosition=bottom;verticalAlign=top;html=1;outlineConnect=0;" vertex="1" parent="1">
          <mxGeometry x="50" y="200" width="30" height="60" as="geometry" />
        </mxCell>
        <mxCell id="Wt9r3CEBOYQ-TrDpD4bI-2" value="Solicitar Avaliação" style="ellipse;whiteSpace=wrap;html=1;" vertex="1" parent="1">
          <mxGeometry x="150" y="190" width="120" height="80" as="geometry" />
        </mxCell>
      </root>
    </mxGraphModel>
  </diagram>
</mxfile>
